<svg xmlns="http://www.w3.org/2000/svg" xmlns:xlink="http://www.w3.org/1999/xlink" width="500" zoomAndPan="magnify" viewBox="0 0 375 74.999997" height="100" preserveAspectRatio="xMidYMid meet" version="1.0"><defs><g/><clipPath id="41da9f6f1f"><path d="M 210.371094 4.855469 L 247 4.855469 L 247 30.355469 L 210.371094 30.355469 Z M 210.371094 4.855469 " clip-rule="nonzero"/></clipPath><clipPath id="6f8965ac42"><path d="M 218 4.855469 L 254.621094 4.855469 L 254.621094 30.355469 L 218 30.355469 Z M 218 4.855469 " clip-rule="nonzero"/></clipPath></defs><g fill="#4b7bfd" fill-opacity="1"><g transform="translate(67.587095, 26.889636)"><g><path d="M 23.15625 -20.796875 L 23.15625 0 L 19.21875 0 L 19.21875 -9.53125 L 12.703125 -0.265625 L 12.640625 -0.265625 L 6.375 -8.921875 L 6.375 0 L 2.578125 0 L 2.578125 -20.796875 L 2.609375 -20.796875 L 12.734375 -6.4375 L 23.09375 -20.796875 Z M 23.15625 -20.796875 "/></g></g></g><g fill="#4b7bfd" fill-opacity="1"><g transform="translate(101.460911, 26.889636)"><g><path d="M 16.203125 -19.96875 L 16.203125 -16.171875 L 6.515625 -16.171875 L 6.515625 -11.921875 L 15.09375 -11.921875 L 15.09375 -8.109375 L 6.515625 -8.109375 L 6.515625 -3.796875 L 16.578125 -3.796875 L 16.578125 0 L 2.578125 0 L 2.578125 -19.96875 Z M 16.203125 -19.96875 "/></g></g></g><g fill="#4b7bfd" fill-opacity="1"><g transform="translate(127.681091, 26.889636)"><g><path d="M 13.359375 0 L 9.140625 -6.34375 L 6.515625 -6.34375 L 6.515625 0 L 2.578125 0 L 2.578125 -19.96875 L 8.625 -19.96875 C 11.101562 -19.96875 13.023438 -19.363281 14.390625 -18.15625 C 15.765625 -16.957031 16.453125 -15.320312 16.453125 -13.25 C 16.453125 -12.019531 16.191406 -10.863281 15.671875 -9.78125 C 15.160156 -8.707031 14.367188 -7.863281 13.296875 -7.25 L 17.9375 0 Z M 6.515625 -10.15625 L 9.3125 -10.15625 C 10.375 -10.15625 11.148438 -10.460938 11.640625 -11.078125 C 12.128906 -11.703125 12.375 -12.378906 12.375 -13.109375 C 12.375 -13.828125 12.164062 -14.515625 11.75 -15.171875 C 11.332031 -15.835938 10.53125 -16.171875 9.34375 -16.171875 L 6.515625 -16.171875 Z M 6.515625 -10.15625 "/></g></g></g><g fill="#4b7bfd" fill-opacity="1"><g transform="translate(154.444087, 26.889636)"><g><path d="M 17.5625 -1.65625 C 17.050781 -1.238281 16.242188 -0.820312 15.140625 -0.40625 C 14.035156 0.0078125 12.832031 0.21875 11.53125 0.21875 C 9.445312 0.21875 7.632812 -0.234375 6.09375 -1.140625 C 4.5625 -2.046875 3.390625 -3.257812 2.578125 -4.78125 C 1.765625 -6.3125 1.359375 -7.992188 1.359375 -9.828125 C 1.359375 -11.835938 1.765625 -13.628906 2.578125 -15.203125 C 3.390625 -16.773438 4.53125 -18 6 -18.875 C 7.46875 -19.75 9.160156 -20.1875 11.078125 -20.1875 C 12.285156 -20.1875 13.40625 -20.023438 14.4375 -19.703125 C 15.46875 -19.378906 16.375 -18.972656 17.15625 -18.484375 L 15.609375 -14.765625 C 14.179688 -15.847656 12.710938 -16.390625 11.203125 -16.390625 C 10.191406 -16.390625 9.242188 -16.109375 8.359375 -15.546875 C 7.472656 -14.984375 6.765625 -14.21875 6.234375 -13.25 C 5.710938 -12.289062 5.453125 -11.222656 5.453125 -10.046875 C 5.453125 -8.753906 5.695312 -7.625 6.1875 -6.65625 C 6.675781 -5.695312 7.375 -4.941406 8.28125 -4.390625 C 9.1875 -3.847656 10.242188 -3.578125 11.453125 -3.578125 C 12.429688 -3.578125 13.304688 -3.734375 14.078125 -4.046875 C 14.859375 -4.367188 15.476562 -4.75 15.9375 -5.1875 Z M 17.5625 -1.65625 "/></g></g></g><g fill="#4b7bfd" fill-opacity="1"><g transform="translate(181.505626, 26.889636)"><g><path d="M 6.109375 -7.375 C 6.109375 -6.75 6.296875 -6.144531 6.671875 -5.5625 C 7.054688 -4.988281 7.5625 -4.519531 8.1875 -4.15625 C 8.820312 -3.789062 9.503906 -3.609375 10.234375 -3.609375 C 11.015625 -3.609375 11.726562 -3.789062 12.375 -4.15625 C 13.03125 -4.519531 13.539062 -4.988281 13.90625 -5.5625 C 14.28125 -6.144531 14.46875 -6.75 14.46875 -7.375 L 14.46875 -19.96875 L 18.34375 -19.96875 L 18.34375 -7.296875 C 18.34375 -5.867188 17.976562 -4.578125 17.25 -3.421875 C 16.53125 -2.273438 15.550781 -1.378906 14.3125 -0.734375 C 13.070312 -0.0976562 11.710938 0.21875 10.234375 0.21875 C 8.742188 0.21875 7.382812 -0.0976562 6.15625 -0.734375 C 4.925781 -1.378906 3.953125 -2.273438 3.234375 -3.421875 C 2.523438 -4.578125 2.171875 -5.867188 2.171875 -7.296875 L 2.171875 -19.96875 L 6.109375 -19.96875 Z M 6.109375 -7.375 "/></g></g></g><g fill="#4b7bfd" fill-opacity="1"><g transform="translate(210.157399, 26.889636)"><g/></g></g><g fill="#4b7bfd" fill-opacity="1"><g transform="translate(227.122653, 26.889636)"><g/></g></g><g fill="#4b7bfd" fill-opacity="1"><g transform="translate(244.087907, 26.889636)"><g/></g></g><g fill="#4b7bfd" fill-opacity="1"><g transform="translate(261.051923, 26.889636)"><g><path d="M 13.359375 0 L 9.140625 -6.34375 L 6.515625 -6.34375 L 6.515625 0 L 2.578125 0 L 2.578125 -19.96875 L 8.625 -19.96875 C 11.101562 -19.96875 13.023438 -19.363281 14.390625 -18.15625 C 15.765625 -16.957031 16.453125 -15.320312 16.453125 -13.25 C 16.453125 -12.019531 16.191406 -10.863281 15.671875 -9.78125 C 15.160156 -8.707031 14.367188 -7.863281 13.296875 -7.25 L 17.9375 0 Z M 6.515625 -10.15625 L 9.3125 -10.15625 C 10.375 -10.15625 11.148438 -10.460938 11.640625 -11.078125 C 12.128906 -11.703125 12.375 -12.378906 12.375 -13.109375 C 12.375 -13.828125 12.164062 -14.515625 11.75 -15.171875 C 11.332031 -15.835938 10.53125 -16.171875 9.34375 -16.171875 L 6.515625 -16.171875 Z M 6.515625 -10.15625 "/></g></g></g><g fill="#4b7bfd" fill-opacity="1"><g transform="translate(287.814919, 26.889636)"><g><path d="M 19.1875 -19.96875 L 11.703125 -6.21875 L 11.703125 0 L 7.765625 0 L 7.765625 -6.21875 L 0.40625 -19.96875 L 5.265625 -19.96875 L 9.859375 -10.75 L 14.328125 -19.96875 Z M 19.1875 -19.96875 "/></g></g></g><g fill="#ffffff" fill-opacity="1"><g transform="translate(96.309749, 64.389633)"><g><path d="M 6.515625 -19.96875 L 6.515625 0 L 2.578125 0 L 2.578125 -19.96875 Z M 6.515625 -19.96875 "/></g></g></g><g fill="#ffffff" fill-opacity="1"><g transform="translate(113.546411, 64.389633)"><g><path d="M 20.578125 -19.96875 L 20.578125 0.8125 L 20.46875 0.8125 L 6.484375 -11.8125 L 6.5625 0 L 2.578125 0 L 2.578125 -20.765625 L 2.734375 -20.765625 L 16.6875 -7.953125 L 16.609375 -19.96875 Z M 20.578125 -19.96875 "/></g></g></g><g fill="#ffffff" fill-opacity="1"><g transform="translate(144.841874, 64.389633)"><g><path d="M 15.0625 -19.96875 L 15.0625 -16.171875 L 6.515625 -16.171875 L 6.515625 -11.640625 L 13.921875 -11.640625 L 13.921875 -7.84375 L 6.515625 -7.84375 L 6.515625 0 L 2.578125 0 L 2.578125 -19.96875 Z M 15.0625 -19.96875 "/></g></g></g><g fill="#ffffff" fill-opacity="1"><g transform="translate(169.270779, 64.389633)"><g><path d="M 6.515625 -19.96875 L 6.515625 0 L 2.578125 0 L 2.578125 -19.96875 Z M 6.515625 -19.96875 "/></g></g></g><g fill="#ffffff" fill-opacity="1"><g transform="translate(186.50744, 64.389633)"><g><path d="M 20.578125 -19.96875 L 20.578125 0.8125 L 20.46875 0.8125 L 6.484375 -11.8125 L 6.5625 0 L 2.578125 0 L 2.578125 -20.765625 L 2.734375 -20.765625 L 16.6875 -7.953125 L 16.609375 -19.96875 Z M 20.578125 -19.96875 "/></g></g></g><g fill="#ffffff" fill-opacity="1"><g transform="translate(217.802897, 64.389633)"><g><path d="M 6.515625 -19.96875 L 6.515625 0 L 2.578125 0 L 2.578125 -19.96875 Z M 6.515625 -19.96875 "/></g></g></g><g fill="#ffffff" fill-opacity="1"><g transform="translate(235.039564, 64.389633)"><g><path d="M 14.6875 -19.96875 L 14.6875 -16.171875 L 9.828125 -16.171875 L 9.828125 0 L 5.890625 0 L 5.890625 -16.171875 L 1.21875 -16.171875 L 1.21875 -19.96875 Z M 14.6875 -19.96875 "/></g></g></g><g fill="#ffffff" fill-opacity="1"><g transform="translate(259.088508, 64.389633)"><g><path d="M 19.1875 -19.96875 L 11.703125 -6.21875 L 11.703125 0 L 7.765625 0 L 7.765625 -6.21875 L 0.40625 -19.96875 L 5.265625 -19.96875 L 9.859375 -10.75 L 14.328125 -19.96875 Z M 19.1875 -19.96875 "/></g></g></g><g clip-path="url(#41da9f6f1f)"><path fill="#ffffff" d="M 222.917969 30.351562 C 215.996094 30.351562 210.367188 24.632812 210.367188 17.605469 C 210.367188 10.578125 215.996094 4.859375 222.917969 4.859375 C 225.929688 4.859375 228.84375 5.960938 231.121094 7.957031 C 231.589844 8.371094 231.640625 9.089844 231.234375 9.566406 C 230.832031 10.042969 230.121094 10.097656 229.652344 9.683594 C 227.78125 8.042969 225.390625 7.140625 222.917969 7.140625 C 217.238281 7.140625 212.613281 11.835938 212.613281 17.605469 C 212.613281 23.375 217.238281 28.070312 222.917969 28.070312 C 228.46875 28.070312 231.664062 23.28125 234.753906 18.648438 C 236.226562 16.4375 237.621094 14.347656 239.242188 12.828125 C 241.203125 10.992188 243.234375 10.269531 245.457031 10.625 C 246.070312 10.722656 246.488281 11.308594 246.390625 11.929688 C 246.296875 12.550781 245.71875 12.976562 245.105469 12.878906 C 241.683594 12.332031 239.332031 15.851562 236.613281 19.929688 C 233.355469 24.8125 229.664062 30.351562 222.917969 30.351562 " fill-opacity="1" fill-rule="nonzero"/></g><g clip-path="url(#6f8965ac42)"><path fill="#4b7bfd" d="M 242.066406 30.351562 C 239.050781 30.351562 236.136719 29.25 233.863281 27.25 C 233.394531 26.839844 233.339844 26.117188 233.746094 25.640625 C 234.152344 25.164062 234.863281 25.113281 235.332031 25.523438 C 237.199219 27.164062 239.589844 28.070312 242.066406 28.070312 C 247.746094 28.070312 252.367188 23.375 252.367188 17.605469 C 252.367188 11.835938 247.746094 7.140625 242.066406 7.140625 C 236.511719 7.140625 233.316406 11.929688 230.230469 16.558594 C 228.753906 18.769531 227.359375 20.859375 225.738281 22.378906 C 223.78125 24.21875 221.746094 24.9375 219.527344 24.582031 C 218.914062 24.484375 218.496094 23.902344 218.589844 23.28125 C 218.6875 22.65625 219.261719 22.230469 219.875 22.328125 C 223.300781 22.878906 225.652344 19.355469 228.371094 15.277344 C 231.628906 10.394531 235.320312 4.859375 242.066406 4.859375 C 248.984375 4.859375 254.613281 10.578125 254.613281 17.605469 C 254.613281 24.632812 248.984375 30.351562 242.066406 30.351562 " fill-opacity="1" fill-rule="nonzero"/></g><path fill="#4b7bfd" d="M 247.734375 11.269531 C 248.902344 12.667969 249.605469 14.480469 249.605469 16.457031 C 249.605469 20.890625 246.070312 24.484375 241.703125 24.484375 C 239.757812 24.484375 237.972656 23.769531 236.597656 22.582031 C 238.046875 24.316406 240.207031 25.421875 242.625 25.421875 C 246.988281 25.421875 250.527344 21.828125 250.527344 17.394531 C 250.527344 14.941406 249.441406 12.742188 247.734375 11.269531 " fill-opacity="1" fill-rule="nonzero"/><path fill="#ffffff" d="M 217.570312 22.84375 C 216.402344 21.445312 215.695312 19.632812 215.695312 17.65625 C 215.695312 13.222656 219.234375 9.628906 223.601562 9.628906 C 225.546875 9.628906 227.332031 10.34375 228.707031 11.53125 C 227.257812 9.796875 225.097656 8.695312 222.679688 8.695312 C 218.316406 8.695312 214.777344 12.289062 214.777344 16.71875 C 214.777344 19.175781 215.863281 21.371094 217.570312 22.84375 " fill-opacity="1" fill-rule="nonzero"/></svg>